<svg xmlns="http://www.w3.org/2000/svg" viewBox="0 0 300 300">
  <rect width="300" height="300" fill="#fff8d6"/>
  <ellipse cx="150" cy="265" rx="260" ry="45" fill="#8cd2a0"/>
  <!-- family -->
  <g transform="translate(20,110)">
    <path d="M10 70 L55 70 L50 135 L15 135 Z" fill="#6a9bff"/>
    <circle cx="32" cy="45" r="22" fill="#ffd9c0"/>
    <path d="M12 35 Q32 12 52 35 L52 52 Q32 58 12 52 Z" fill="#8a5a2a"/>
  </g>
  <g transform="translate(90,110)">
    <rect x="0" y="70" width="50" height="65" fill="#4f9a62"/>
    <circle cx="25" cy="45" r="22" fill="#ffd9c0"/>
    <path d="M5 32 Q25 10 45 32 L45 50 Q25 55 5 50 Z" fill="#2b2140"/>
  </g>
  <!-- Patufet tiny -->
  <g transform="translate(170,175)">
    <rect x="0" y="20" width="18" height="28" fill="#d93048" rx="3"/>
    <circle cx="9" cy="12" r="8" fill="#ffd9c0"/>
    <polygon points="1,8 6,0 10,10 15,0 17,12" fill="#2b2140"/>
    <circle cx="6" cy="12" r="0.8" fill="#2b2140"/><circle cx="12" cy="12" r="0.8" fill="#2b2140"/>
    <path d="M5 18 Q9 21 13 18" stroke="#2b2140" stroke-width="0.8" fill="none"/>
    <rect x="3" y="48" width="5" height="9" fill="#3455a3"/>
    <rect x="10" y="48" width="5" height="9" fill="#3455a3"/>
  </g>
  <!-- heart -->
  <path d="M230 95 C230 88, 238 88, 238 96 C238 88, 246 88, 246 95 C246 104, 238 112, 238 112 C238 112, 230 104, 230 95 Z" fill="#d93048"/>
</svg>
