<svg xmlns="http://www.w3.org/2000/svg" viewBox="0 0 300 300">
  <rect width="300" height="300" fill="#fff2e8"/>
  <rect x="0" y="230" width="300" height="70" fill="#c8a074"/>
  <!-- table -->
  <rect x="40" y="180" width="180" height="12" fill="#8a5a2a"/>
  <rect x="50" y="192" width="12" height="45" fill="#8a5a2a"/>
  <rect x="198" y="192" width="12" height="45" fill="#8a5a2a"/>
  <!-- mother -->
  <g transform="translate(40,80)">
    <path d="M10 70 L60 70 L55 130 L15 130 Z" fill="#6a9bff"/>
    <circle cx="35" cy="45" r="24" fill="#ffd9c0"/>
    <path d="M13 35 Q35 10 57 35 L57 52 Q35 58 13 52 Z" fill="#8a5a2a"/>
    <circle cx="28" cy="45" r="1.5" fill="#2b2140"/><circle cx="42" cy="45" r="1.5" fill="#2b2140"/>
    <path d="M28 56 Q35 60 42 56" stroke="#2b2140" stroke-width="1.2" fill="none"/>
  </g>
  <!-- Patufet tiny on table -->
  <g transform="translate(170,155)">
    <rect x="6" y="15" width="15" height="22" fill="#d93048" rx="2"/>
    <circle cx="13" cy="10" r="7" fill="#ffd9c0"/>
    <polygon points="0,6 6,3 6,10" fill="#d93048"/>
    <polygon points="6,7 10,-5 16,7 22,-4 22,10" fill="#2b2140"/>
    <circle cx="10" cy="10" r="0.7" fill="#2b2140"/><circle cx="16" cy="10" r="0.7" fill="#2b2140"/>
    <rect x="7" y="37" width="4" height="8" fill="#3455a3"/>
    <rect x="15" y="37" width="4" height="8" fill="#3455a3"/>
  </g>
  <!-- coins -->
  <g transform="translate(90,170)">
    <circle cx="10" cy="10" r="8" fill="#ffd86b" stroke="#c08a1f" stroke-width="1"/>
    <circle cx="26" cy="10" r="8" fill="#ffd86b" stroke="#c08a1f" stroke-width="1"/>
  </g>
</svg>
