<svg xmlns="http://www.w3.org/2000/svg" viewBox="0 0 300 300">
  <rect width="300" height="300" fill="#d4efff"/>
  <ellipse cx="150" cy="260" rx="240" ry="50" fill="#6fb981"/>
  <polygon points="250,230 285,120 300,230" fill="#3f8b54"/>
  <!-- Red -->
  <g transform="translate(35,150)">
    <path d="M5 70 Q30 100 55 70 L50 120 L10 120 Z" fill="#d93048"/>
    <path d="M10 25 Q30 0 50 25 L50 55 Q30 65 10 55 Z" fill="#d93048"/>
    <circle cx="30" cy="45" r="16" fill="#ffd9c0"/>
    <circle cx="25" cy="44" r="1.3" fill="#2b2140"/><circle cx="35" cy="44" r="1.3" fill="#2b2140"/>
    <path d="M26 53 Q30 55 34 52" stroke="#2b2140" stroke-width="1" fill="none"/>
  </g>
  <!-- Wolf -->
  <g transform="translate(140,150)">
    <ellipse cx="60" cy="80" rx="55" ry="35" fill="#7e7a8a"/>
    <circle cx="110" cy="55" r="32" fill="#8f8a9a"/>
    <polygon points="92,28 100,10 108,32" fill="#8f8a9a"/>
    <polygon points="125,28 130,10 135,32" fill="#8f8a9a"/>
    <circle cx="105" cy="50" r="2" fill="#2b2140"/><circle cx="118" cy="50" r="2" fill="#2b2140"/>
    <ellipse cx="135" cy="62" rx="8" ry="5" fill="#6b6875"/>
    <path d="M128 68 Q135 74 142 68" stroke="#2b2140" stroke-width="1.2" fill="none"/>
  </g>
</svg>
