<svg xmlns="http://www.w3.org/2000/svg" viewBox="0 0 300 300">
  <rect width="300" height="300" fill="#fff2e8"/>
  <rect x="0" y="210" width="300" height="90" fill="#b6e6c3"/>
  <!-- house bg -->
  <rect x="180" y="100" width="100" height="110" fill="#f7d59b"/>
  <polygon points="180,100 280,100 230,55" fill="#b0522c"/>
  <rect x="215" y="140" width="30" height="55" fill="#7a431d"/>
  <rect x="195" y="115" width="20" height="20" fill="#cfeaff"/>
  <!-- mother -->
  <g transform="translate(40,140)">
    <path d="M10 70 L60 70 L55 130 L15 130 Z" fill="#6a9bff"/>
    <circle cx="35" cy="45" r="22" fill="#ffd9c0"/>
    <path d="M15 35 Q35 15 55 35 L55 50 Q35 55 15 50 Z" fill="#6b4423"/>
    <circle cx="28" cy="45" r="1.5" fill="#2b2140"/><circle cx="42" cy="45" r="1.5" fill="#2b2140"/>
    <path d="M28 55 Q35 60 42 55" stroke="#2b2140" stroke-width="1.2" fill="none"/>
  </g>
  <!-- daughter -->
  <g transform="translate(130,160)">
    <path d="M0 60 Q30 90 60 60 L55 110 L5 110 Z" fill="#d93048"/>
    <path d="M5 25 Q30 -5 55 25 L55 60 Q30 70 5 60 Z" fill="#d93048"/>
    <circle cx="30" cy="45" r="17" fill="#ffd9c0"/>
    <circle cx="25" cy="44" r="1.3" fill="#2b2140"/><circle cx="35" cy="44" r="1.3" fill="#2b2140"/>
    <path d="M26 52 Q30 55 34 52" stroke="#2b2140" stroke-width="1" fill="none"/>
  </g>
  <!-- basket -->
  <g transform="translate(170,225)">
    <rect x="0" y="0" width="50" height="28" rx="4" fill="#c88a4c" stroke="#7a431d" stroke-width="2"/>
    <path d="M0 0 Q25 -22 50 0" fill="none" stroke="#7a431d" stroke-width="2"/>
    <circle cx="15" cy="8" r="4" fill="#d93048"/>
    <circle cx="30" cy="6" r="4" fill="#f2c14e"/>
  </g>
</svg>
