<svg xmlns="http://www.w3.org/2000/svg" viewBox="0 0 300 300">
  <rect width="300" height="300" fill="#d4efff"/>
  <ellipse cx="150" cy="260" rx="240" ry="50" fill="#6fb981"/>
  <!-- trees -->
  <g>
    <polygon points="20,230 60,130 100,230" fill="#3f8b54"/><rect x="53" y="225" width="14" height="30" fill="#6b4423"/>
    <polygon points="220,230 260,140 300,230" fill="#4f9a62"/><rect x="251" y="225" width="14" height="30" fill="#6b4423"/>
    <polygon points="110,210 130,140 150,210" fill="#5aa770"/>
  </g>
  <!-- path -->
  <path d="M30 280 Q150 240 270 280" stroke="#d6b27a" stroke-width="18" fill="none" stroke-linecap="round" opacity=".8"/>
  <!-- flowers -->
  <g><circle cx="70" cy="258" r="4" fill="#ffb3d2"/><circle cx="90" cy="262" r="4" fill="#ffe27a"/><circle cx="210" cy="258" r="4" fill="#d93048"/></g>
  <!-- Red Riding Hood -->
  <g transform="translate(120,150)">
    <path d="M5 70 Q30 100 55 70 L50 120 L10 120 Z" fill="#d93048"/>
    <path d="M10 25 Q30 0 50 25 L50 55 Q30 65 10 55 Z" fill="#d93048"/>
    <circle cx="30" cy="45" r="16" fill="#ffd9c0"/>
    <circle cx="25" cy="44" r="1.3" fill="#2b2140"/><circle cx="35" cy="44" r="1.3" fill="#2b2140"/>
    <path d="M26 52 Q30 55 34 52" stroke="#2b2140" stroke-width="1" fill="none"/>
    <rect x="35" y="105" width="26" height="16" fill="#c88a4c" stroke="#7a431d" stroke-width="1.5"/>
  </g>
</svg>
