<svg xmlns="http://www.w3.org/2000/svg" viewBox="0 0 300 300">
  <rect width="300" height="300" fill="#fff8d6"/>
  <ellipse cx="150" cy="265" rx="260" ry="45" fill="#8cd2a0"/>
  <!-- finish banner -->
  <g>
    <rect x="30" y="50" width="240" height="40" fill="#d93048"/>
    <text x="150" y="78" text-anchor="middle" font-family="Baloo 2, sans-serif" font-size="22" font-weight="800" fill="#fff">META!</text>
    <rect x="30" y="90" width="6" height="120" fill="#8a5a2a"/>
    <rect x="264" y="90" width="6" height="120" fill="#8a5a2a"/>
  </g>
  <!-- tortoise at finish -->
  <g transform="translate(100,180)">
    <ellipse cx="60" cy="50" rx="55" ry="26" fill="#4aa568"/>
    <ellipse cx="60" cy="48" rx="45" ry="20" fill="#3f8b54"/>
    <g fill="#2f7a44"><circle cx="40" cy="42" r="5"/><circle cx="60" cy="38" r="5"/><circle cx="80" cy="42" r="5"/></g>
    <circle cx="115" cy="50" r="13" fill="#7ecb8e"/>
    <circle cx="119" cy="46" r="1.5" fill="#2b2140"/>
    <path d="M112 55 Q117 58 122 54" stroke="#2b2140" stroke-width="1" fill="none"/>
    <!-- trophy -->
    <g transform="translate(130,15)">
      <rect x="4" y="15" width="16" height="5" fill="#c08a1f"/>
      <path d="M2 0 L22 0 L18 15 L6 15 Z" fill="#ffd86b"/>
    </g>
  </g>
</svg>
