<svg xmlns="http://www.w3.org/2000/svg" viewBox="0 0 300 300">
  <rect width="300" height="300" fill="#eaf4ff"/>
  <rect x="0" y="200" width="300" height="100" fill="#6a9bff"/>
  <ellipse cx="150" cy="205" rx="260" ry="15" fill="#8cd2a0"/>
  <!-- gray duckling alone -->
  <g transform="translate(60,150)">
    <ellipse cx="30" cy="55" rx="30" ry="18" fill="#b8b8c8"/>
    <circle cx="55" cy="45" r="16" fill="#b8b8c8"/>
    <polygon points="65,45 80,48 65,55" fill="#ff9a3c"/>
    <circle cx="58" cy="42" r="1.5" fill="#2b2140"/>
    <path d="M52 52 Q56 55 60 52" stroke="#2b2140" stroke-width="1" fill="none"/>
    <!-- tear -->
    <ellipse cx="57" cy="50" rx="1" ry="2" fill="#6a9bff"/>
  </g>
  <!-- yellow ducklings group -->
  <g transform="translate(165,150)">
    <ellipse cx="30" cy="55" rx="25" ry="15" fill="#ffd86b"/>
    <circle cx="50" cy="45" r="13" fill="#ffd86b"/>
    <polygon points="58,45 70,48 58,53" fill="#ff9a3c"/>
    <circle cx="52" cy="42" r="1.2" fill="#2b2140"/>
  </g>
  <g transform="translate(220,155)">
    <ellipse cx="25" cy="50" rx="22" ry="13" fill="#ffd86b"/>
    <circle cx="42" cy="42" r="12" fill="#ffd86b"/>
    <polygon points="50,42 60,45 50,50" fill="#ff9a3c"/>
    <circle cx="44" cy="40" r="1.2" fill="#2b2140"/>
  </g>
  <g transform="translate(180,185)">
    <ellipse cx="22" cy="45" rx="20" ry="12" fill="#ffd86b"/>
    <circle cx="37" cy="38" r="10" fill="#ffd86b"/>
    <polygon points="44,38 52,40 44,45" fill="#ff9a3c"/>
  </g>
</svg>
