<svg xmlns="http://www.w3.org/2000/svg" viewBox="0 0 300 400" preserveAspectRatio="xMidYMid slice">
  <defs>
    <linearGradient id="sky" x1="0" y1="0" x2="0" y2="1">
      <stop offset="0" stop-color="#ffd6e8"/><stop offset="1" stop-color="#bde0ff"/>
    </linearGradient>
  </defs>
  <rect width="300" height="400" fill="url(#sky)"/>
  <circle cx="240" cy="60" r="30" fill="#ffe27a"/>
  <ellipse cx="150" cy="360" rx="220" ry="40" fill="#7ecb8e"/>
  <!-- cloud -->
  <g fill="#fff" opacity=".9"><circle cx="60" cy="70" r="18"/><circle cx="80" cy="70" r="22"/><circle cx="100" cy="70" r="18"/></g>
  <!-- three pigs -->
  <g transform="translate(50,230)">
    <ellipse cx="30" cy="55" rx="30" ry="26" fill="#ffb0c8"/>
    <circle cx="30" cy="38" r="22" fill="#ffc4d6"/>
    <ellipse cx="30" cy="42" rx="8" ry="6" fill="#ff8fb0"/>
    <circle cx="26" cy="42" r="1.5" fill="#2b2140"/><circle cx="34" cy="42" r="1.5" fill="#2b2140"/>
    <circle cx="22" cy="35" r="2" fill="#2b2140"/><circle cx="38" cy="35" r="2" fill="#2b2140"/>
    <path d="M24 48 Q30 52 36 48" stroke="#2b2140" stroke-width="1.5" fill="none" stroke-linecap="round"/>
  </g>
  <g transform="translate(120,230)">
    <ellipse cx="30" cy="55" rx="30" ry="26" fill="#ffb0c8"/>
    <circle cx="30" cy="38" r="22" fill="#ffc4d6"/>
    <ellipse cx="30" cy="42" rx="8" ry="6" fill="#ff8fb0"/>
    <circle cx="26" cy="42" r="1.5" fill="#2b2140"/><circle cx="34" cy="42" r="1.5" fill="#2b2140"/>
    <circle cx="22" cy="35" r="2" fill="#2b2140"/><circle cx="38" cy="35" r="2" fill="#2b2140"/>
    <path d="M24 48 Q30 52 36 48" stroke="#2b2140" stroke-width="1.5" fill="none" stroke-linecap="round"/>
  </g>
  <g transform="translate(190,230)">
    <ellipse cx="30" cy="55" rx="30" ry="26" fill="#ffb0c8"/>
    <circle cx="30" cy="38" r="22" fill="#ffc4d6"/>
    <ellipse cx="30" cy="42" rx="8" ry="6" fill="#ff8fb0"/>
    <circle cx="26" cy="42" r="1.5" fill="#2b2140"/><circle cx="34" cy="42" r="1.5" fill="#2b2140"/>
    <circle cx="22" cy="35" r="2" fill="#2b2140"/><circle cx="38" cy="35" r="2" fill="#2b2140"/>
    <path d="M24 48 Q30 52 36 48" stroke="#2b2140" stroke-width="1.5" fill="none" stroke-linecap="round"/>
  </g>
  <text x="150" y="160" text-anchor="middle" font-family="Baloo 2, sans-serif" font-size="34" font-weight="800" fill="#2b2140">Els tres</text>
  <text x="150" y="195" text-anchor="middle" font-family="Baloo 2, sans-serif" font-size="34" font-weight="800" fill="#ff5a7e">porquets</text>
</svg>
