<svg xmlns="http://www.w3.org/2000/svg" viewBox="0 0 300 300">
  <defs><linearGradient id="s1" x1="0" y1="0" x2="0" y2="1"><stop offset="0" stop-color="#cfeaff"/><stop offset="1" stop-color="#eaf9ef"/></linearGradient></defs>
  <rect width="300" height="300" fill="url(#s1)"/>
  <circle cx="230" cy="60" r="24" fill="#ffd86b"/>
  <ellipse cx="150" cy="240" rx="220" ry="50" fill="#8cd2a0"/>
  <path d="M30 230 Q150 180 270 230" stroke="#b87e46" stroke-width="22" fill="none" stroke-linecap="round" opacity=".6"/>
  <g transform="translate(40,170)">
    <ellipse cx="25" cy="45" rx="25" ry="22" fill="#ffb0c8"/>
    <circle cx="25" cy="30" r="18" fill="#ffc4d6"/>
    <ellipse cx="25" cy="34" rx="6" ry="4" fill="#ff8fb0"/>
    <circle cx="21" cy="28" r="1.5" fill="#2b2140"/><circle cx="29" cy="28" r="1.5" fill="#2b2140"/>
  </g>
  <g transform="translate(120,170)">
    <ellipse cx="25" cy="45" rx="25" ry="22" fill="#ffb0c8"/>
    <circle cx="25" cy="30" r="18" fill="#ffc4d6"/>
    <ellipse cx="25" cy="34" rx="6" ry="4" fill="#ff8fb0"/>
    <circle cx="21" cy="28" r="1.5" fill="#2b2140"/><circle cx="29" cy="28" r="1.5" fill="#2b2140"/>
  </g>
  <g transform="translate(200,170)">
    <ellipse cx="25" cy="45" rx="25" ry="22" fill="#ffb0c8"/>
    <circle cx="25" cy="30" r="18" fill="#ffc4d6"/>
    <ellipse cx="25" cy="34" rx="6" ry="4" fill="#ff8fb0"/>
    <circle cx="21" cy="28" r="1.5" fill="#2b2140"/><circle cx="29" cy="28" r="1.5" fill="#2b2140"/>
  </g>
  <g fill="#fff" opacity=".9"><circle cx="70" cy="50" r="14"/><circle cx="88" cy="50" r="18"/><circle cx="106" cy="50" r="14"/></g>
</svg>
