<svg xmlns="http://www.w3.org/2000/svg" viewBox="0 0 300 300">
  <rect width="300" height="300" fill="#fff8d6"/>
  <ellipse cx="150" cy="250" rx="220" ry="45" fill="#8cd2a0"/>
  <polygon points="80,150 220,150 150,80" fill="#b0522c"/>
  <rect x="95" y="150" width="110" height="90" fill="#d97453"/>
  <g fill="none" stroke="#7a2e1b" stroke-width="1.5" opacity=".85">
    <line x1="95" y1="170" x2="205" y2="170"/><line x1="95" y1="190" x2="205" y2="190"/>
    <line x1="95" y1="210" x2="205" y2="210"/>
    <line x1="130" y1="150" x2="130" y2="170"/><line x1="170" y1="150" x2="170" y2="170"/>
    <line x1="115" y1="170" x2="115" y2="190"/><line x1="155" y1="170" x2="155" y2="190"/><line x1="185" y1="170" x2="185" y2="190"/>
  </g>
  <!-- 3 pigs faces in windows -->
  <g>
    <circle cx="118" cy="215" r="14" fill="#ffc4d6"/>
    <ellipse cx="118" cy="218" rx="5" ry="3" fill="#ff8fb0"/>
    <circle cx="115" cy="213" r="1.2" fill="#2b2140"/><circle cx="121" cy="213" r="1.2" fill="#2b2140"/>
    <path d="M113 221 Q118 225 123 221" stroke="#2b2140" stroke-width="1" fill="none"/>
  </g>
  <g>
    <circle cx="150" cy="215" r="14" fill="#ffc4d6"/>
    <ellipse cx="150" cy="218" rx="5" ry="3" fill="#ff8fb0"/>
    <circle cx="147" cy="213" r="1.2" fill="#2b2140"/><circle cx="153" cy="213" r="1.2" fill="#2b2140"/>
    <path d="M145 221 Q150 225 155 221" stroke="#2b2140" stroke-width="1" fill="none"/>
  </g>
  <g>
    <circle cx="182" cy="215" r="14" fill="#ffc4d6"/>
    <ellipse cx="182" cy="218" rx="5" ry="3" fill="#ff8fb0"/>
    <circle cx="179" cy="213" r="1.2" fill="#2b2140"/><circle cx="185" cy="213" r="1.2" fill="#2b2140"/>
    <path d="M177 221 Q182 225 187 221" stroke="#2b2140" stroke-width="1" fill="none"/>
  </g>
  <text x="150" y="70" text-anchor="middle" font-family="Baloo 2, sans-serif" font-size="22" font-weight="800" fill="#ff5a7e">Segurs!</text>
  <text x="150" y="100" text-anchor="middle" font-size="26">🎉</text>
</svg>
