<svg xmlns="http://www.w3.org/2000/svg" viewBox="0 0 300 300">
  <rect width="300" height="300" fill="#eaf7ff"/>
  <ellipse cx="150" cy="265" rx="250" ry="45" fill="#8cd2a0"/>
  <!-- giant -->
  <g transform="translate(70,50)">
    <rect x="30" y="70" width="100" height="130" fill="#ff7a59" rx="10"/>
    <circle cx="80" cy="55" r="45" fill="#ffd9c0"/>
    <path d="M40 20 Q80 -5 120 20 L118 55 Q80 62 42 55 Z" fill="#6b4423"/>
    <circle cx="65" cy="55" r="3" fill="#2b2140"/><circle cx="95" cy="55" r="3" fill="#2b2140"/>
    <path d="M65 72 Q80 82 95 72" stroke="#2b2140" stroke-width="2.5" fill="none"/>
    <rect x="8" y="80" width="24" height="75" fill="#ff7a59" rx="6"/>
    <rect x="128" y="80" width="24" height="75" fill="#ff7a59" rx="6"/>
    <circle cx="20" cy="160" r="13" fill="#ffd9c0"/><circle cx="140" cy="160" r="13" fill="#ffd9c0"/>
    <rect x="40" y="200" width="28" height="45" fill="#3455a3" rx="4"/>
    <rect x="92" y="200" width="28" height="45" fill="#3455a3" rx="4"/>
  </g>
</svg>
